<?xml version="1.0" encoding="utf-8"?>
<!-- Generator: Adobe Illustrator 16.0.0, SVG Export Plug-In . SVG Version: 6.00 Build 0)  -->
<!DOCTYPE svg PUBLIC "-//W3C//DTD SVG 1.1//EN" "http://www.w3.org/Graphics/SVG/1.1/DTD/svg11.dtd">
<svg version="1.1" id="Layer_1" xmlns="http://www.w3.org/2000/svg" xmlns:xlink="http://www.w3.org/1999/xlink" x="0px" y="0px"
	 width="430px" height="192px" viewBox="0 0 430 192" enable-background="new 0 0 430 192" xml:space="preserve">
<g>
	
		<path fill="#FFFFFF" stroke="#78D5F4" stroke-width="4" stroke-linecap="round" stroke-linejoin="round" stroke-miterlimit="10" d="
		M418.104,69.324c-1.753-6.443-5.909-11.819-11.701-15.134c-3.777-2.164-8.069-3.307-12.413-3.307
		c-8.895,0-17.167,4.765-21.627,12.445c-3.105-10.058-12.165-17.064-22.689-17.56l0.322-6.18c0.349-6.669-1.922-13.075-6.392-18.037
		c-4.47-4.961-10.604-7.885-17.242-8.231c-13.854-0.745-25.583,9.924-26.298,23.662l-0.17,3.251
		c-1.048-0.071-2.095-0.106-3.136-0.106c-10.938,0-21.28,3.718-29.872,10.13c-1.091-12.748-11.949-22.888-24.872-22.888
		c-0.241,0-0.481,0.003-0.675,0.009c-6.675,0.171-12.885,2.932-17.484,7.772c-3.388,3.565-5.598,7.946-6.462,12.673
		c-6.323-3.868-13.473-6.337-21.099-7.007l0.335-3.248c1.416-13.712-8.588-26.02-22.301-27.437
		c-0.854-0.088-1.722-0.133-2.579-0.133c-12.85,0-23.535,9.644-24.856,22.433l-1.026,9.937c-3.928-1.216-17.317-3.599-28.795,8.672
		c-19.092-17.171-32.754-3.552-36.655-3.76C73.229,31.62,64.479,25.514,46.283,25.514c-1.659,0-3.328,0.042-4.958,0.371
		c-6.545,1.321-12.185,5.05-15.879,10.613c-3.694,5.563-5.001,12.2-3.68,18.746l0.107,0.517
		C12.917,61.297,8.092,72.161,10.71,82.936c2.426,9.978,10.563,17.282,20.447,18.801l7.267,36.002
		c2.346,11.621,12.647,20.053,24.495,20.053c1.66,0,3.329-0.167,4.96-0.496c9.182-1.855,16.17-8.554,18.854-16.895
		c8.685,7.452,19.054,11.359,30.439,11.359c10.201,0,20.002-3.255,28.499-9.435c3.938,3.63,8.917,5.89,14.339,6.449
		c4.062,0.422,8.164-0.186,11.855-1.673c6.468,3.075,13.482,4.668,20.734,4.668c0.592,0,1.19-0.011,1.794-0.033
		c8.676-0.324,16.864-2.923,24.053-7.492c3.021,12.118,13.993,21.126,27.034,21.126c12.506,0,23.113-8.283,26.626-19.65
		c3.886,1.986,8.081,3.468,12.536,4.336c2.812,0.548,5.804,0.814,9.148,0.814c4.595,0,9.184-0.667,13.625-1.961
		c3.465,2.105,7.452,3.379,11.653,3.598c0.438,0.023,0.877,0.034,1.313,0.034c1.109,0,2.2-0.079,3.272-0.219
		c-0.39,3.176-0.164,6.428,0.701,9.608c1.753,6.444,5.909,11.819,11.699,15.134c3.777,2.164,8.07,3.308,12.415,3.308
		c8.947,0,17.265-4.821,21.706-12.582l45.5-79.485C418.994,82.509,419.856,75.769,418.104,69.324z"/>
	<g>
		<ellipse fill="#FFFFFF" cx="293.98" cy="96.258" rx="23.667" ry="27.388"/>
		<g>
			<g>
				<g>
					<defs>
						<ellipse id="SVGID_1_" cx="294.063" cy="99.057" rx="15.801" ry="17.813"/>
					</defs>
					<clipPath id="SVGID_2_">
						<use xlink:href="#SVGID_1_"  overflow="visible"/>
					</clipPath>
					<rect x="278" y="81" clip-path="url(#SVGID_2_)" fill="none" width="32" height="7"/>
					<rect x="278" y="88" clip-path="url(#SVGID_2_)" fill="none" width="32" height="1"/>
					<rect x="277.979" y="89" clip-path="url(#SVGID_2_)" fill="none" width="32" height="0"/>
					<rect x="277.979" y="89" clip-path="url(#SVGID_2_)" fill="none" width="32" height="0"/>
					<rect x="277.979" y="89" clip-path="url(#SVGID_2_)" fill="none" width="32" height="0"/>
					<rect x="278" y="89" clip-path="url(#SVGID_2_)" fill="none" width="32" height="1"/>
					<rect x="277.979" y="90" clip-path="url(#SVGID_2_)" fill="none" width="32" height="0"/>
					<rect x="277.979" y="90" clip-path="url(#SVGID_2_)" fill="none" width="32" height="0"/>
					<rect x="277.979" y="90" clip-path="url(#SVGID_2_)" fill="none" width="32" height="0"/>
					<rect x="277.979" y="90" clip-path="url(#SVGID_2_)" fill="none" width="32" height="0"/>
					<rect x="278" y="90" clip-path="url(#SVGID_2_)" fill="none" width="32" height="1"/>
					<rect x="277.979" y="91" clip-path="url(#SVGID_2_)" fill="none" width="32" height="0"/>
					<rect x="277.979" y="91" clip-path="url(#SVGID_2_)" fill="none" width="32" height="0"/>
					<rect x="277.979" y="91" clip-path="url(#SVGID_2_)" fill="none" width="32" height="0"/>
					<rect x="277.979" y="91" clip-path="url(#SVGID_2_)" fill="none" width="32" height="0"/>
					<rect x="278" y="91" clip-path="url(#SVGID_2_)" fill="none" width="32" height="1"/>
					<rect x="277.979" y="92" clip-path="url(#SVGID_2_)" fill="none" width="32" height="0"/>
					<rect x="277.979" y="92" clip-path="url(#SVGID_2_)" fill="none" width="32" height="0"/>
					<rect x="277.979" y="92" clip-path="url(#SVGID_2_)" fill="none" width="32" height="0"/>
					<rect x="278" y="92" clip-path="url(#SVGID_2_)" fill="none" width="32" height="1"/>
					<rect x="277.979" y="93" clip-path="url(#SVGID_2_)" fill="none" width="32" height="0"/>
					<rect x="277.979" y="93" clip-path="url(#SVGID_2_)" fill="none" width="32" height="0"/>
					<rect x="277.979" y="93" clip-path="url(#SVGID_2_)" fill="none" width="32" height="0"/>
					<rect x="277.979" y="93" clip-path="url(#SVGID_2_)" fill="none" width="32" height="0"/>
					<rect x="278" y="93" clip-path="url(#SVGID_2_)" fill="none" width="32" height="1"/>
					<rect x="277.979" y="94" clip-path="url(#SVGID_2_)" fill="none" width="32" height="0"/>
					<rect x="277.979" y="94" clip-path="url(#SVGID_2_)" fill="none" width="32" height="0"/>
					<rect x="277.979" y="94" clip-path="url(#SVGID_2_)" fill="none" width="32" height="0"/>
					<rect x="277.979" y="94" clip-path="url(#SVGID_2_)" fill="none" width="32" height="0"/>
					<rect x="278" y="94" clip-path="url(#SVGID_2_)" fill="none" width="32" height="1"/>
					<rect x="277.979" y="95" clip-path="url(#SVGID_2_)" fill="none" width="32" height="0"/>
					<rect x="277.979" y="95" clip-path="url(#SVGID_2_)" fill="none" width="32" height="0"/>
					<rect x="277.979" y="95" clip-path="url(#SVGID_2_)" fill="none" width="32" height="0"/>
					<rect x="278" y="95" clip-path="url(#SVGID_2_)" fill="none" width="32" height="1"/>
					<rect x="277.979" y="96" clip-path="url(#SVGID_2_)" fill="none" width="32" height="0"/>
					<rect x="277.979" y="96" clip-path="url(#SVGID_2_)" fill="none" width="32" height="0"/>
					<rect x="277.979" y="96" clip-path="url(#SVGID_2_)" fill="none" width="32" height="0"/>
					<rect x="277.979" y="96" clip-path="url(#SVGID_2_)" fill="none" width="32" height="0"/>
					<rect x="278" y="96" clip-path="url(#SVGID_2_)" fill="none" width="32" height="1"/>
					<rect x="277.979" y="97" clip-path="url(#SVGID_2_)" fill="none" width="32" height="0"/>
					<rect x="277.979" y="97" clip-path="url(#SVGID_2_)" fill="none" width="32" height="0"/>
					<rect x="277.979" y="97" clip-path="url(#SVGID_2_)" fill="none" width="32" height="0"/>
					<rect x="278" y="97" clip-path="url(#SVGID_2_)" fill="none" width="32" height="1"/>
					<rect x="277.979" y="98" clip-path="url(#SVGID_2_)" fill="none" width="32" height="0"/>
					<rect x="277.979" y="98" clip-path="url(#SVGID_2_)" fill="none" width="32" height="0"/>
					<rect x="277.979" y="98" clip-path="url(#SVGID_2_)" fill="none" width="32" height="0"/>
					<rect x="277.979" y="98" clip-path="url(#SVGID_2_)" fill="none" width="32" height="0"/>
					<rect x="278" y="98" clip-path="url(#SVGID_2_)" fill="none" width="32" height="1"/>
					<rect x="277.979" y="99" clip-path="url(#SVGID_2_)" fill="none" width="32" height="0"/>
					<rect x="277.979" y="99" clip-path="url(#SVGID_2_)" fill="none" width="32" height="0"/>
					<rect x="277.979" y="99" clip-path="url(#SVGID_2_)" fill="none" width="32" height="0"/>
					<rect x="277.979" y="99" clip-path="url(#SVGID_2_)" fill="none" width="32" height="0"/>
					<rect x="278" y="99" clip-path="url(#SVGID_2_)" fill="none" width="32" height="1"/>
					<rect x="277.979" y="100" clip-path="url(#SVGID_2_)" fill="none" width="32" height="0"/>
					<rect x="277.979" y="100" clip-path="url(#SVGID_2_)" fill="none" width="32" height="0"/>
					<rect x="277.979" y="100" clip-path="url(#SVGID_2_)" fill="none" width="32" height="0"/>
					<rect x="278" y="100" clip-path="url(#SVGID_2_)" fill="none" width="32" height="1"/>
					<rect x="277.979" y="101" clip-path="url(#SVGID_2_)" fill="none" width="32" height="0"/>
					<rect x="277.979" y="101" clip-path="url(#SVGID_2_)" fill="none" width="32" height="0"/>
					<rect x="277.979" y="101" clip-path="url(#SVGID_2_)" fill="none" width="32" height="0"/>
					<rect x="277.979" y="101" clip-path="url(#SVGID_2_)" fill="none" width="32" height="0"/>
					<rect x="278" y="101" clip-path="url(#SVGID_2_)" fill="none" width="32" height="1"/>
					<rect x="277.979" y="102" clip-path="url(#SVGID_2_)" fill="none" width="32" height="0"/>
					<rect x="277.979" y="102" clip-path="url(#SVGID_2_)" fill="none" width="32" height="0"/>
					<rect x="277.979" y="102" clip-path="url(#SVGID_2_)" fill="none" width="32" height="0"/>
					<rect x="277.979" y="102" clip-path="url(#SVGID_2_)" fill="none" width="32" height="0"/>
					<rect x="278" y="102" clip-path="url(#SVGID_2_)" fill="none" width="32" height="1"/>
					<rect x="277.979" y="103" clip-path="url(#SVGID_2_)" fill="none" width="32" height="0"/>
					<rect x="277.979" y="103" clip-path="url(#SVGID_2_)" fill="none" width="32" height="0"/>
					<rect x="277.979" y="103" clip-path="url(#SVGID_2_)" fill="none" width="32" height="0"/>
					<rect x="278" y="103" clip-path="url(#SVGID_2_)" fill="none" width="32" height="1"/>
					<rect x="277.979" y="104" clip-path="url(#SVGID_2_)" fill="none" width="32" height="0"/>
					<rect x="277.979" y="104" clip-path="url(#SVGID_2_)" fill="none" width="32" height="0"/>
					<rect x="277.979" y="104" clip-path="url(#SVGID_2_)" fill="none" width="32" height="0"/>
					<rect x="277.979" y="104" clip-path="url(#SVGID_2_)" fill="none" width="32" height="0"/>
					<rect x="278" y="104" clip-path="url(#SVGID_2_)" fill="none" width="32" height="1"/>
					<rect x="277.979" y="105" clip-path="url(#SVGID_2_)" fill="none" width="32" height="0"/>
					<rect x="277.979" y="105" clip-path="url(#SVGID_2_)" fill="none" width="32" height="0"/>
					<rect x="277.979" y="105" clip-path="url(#SVGID_2_)" fill="none" width="32" height="0"/>
					<rect x="278" y="105" clip-path="url(#SVGID_2_)" fill="none" width="32" height="1"/>
					<rect x="277.979" y="106" clip-path="url(#SVGID_2_)" fill="none" width="32" height="0"/>
					<rect x="277.979" y="106" clip-path="url(#SVGID_2_)" fill="none" width="32" height="0"/>
					<rect x="277.979" y="106" clip-path="url(#SVGID_2_)" fill="none" width="32" height="0"/>
					<rect x="277.979" y="106" clip-path="url(#SVGID_2_)" fill="none" width="32" height="0"/>
					<rect x="278" y="106" clip-path="url(#SVGID_2_)" fill="none" width="32" height="1"/>
					<rect x="277.979" y="107" clip-path="url(#SVGID_2_)" fill="none" width="32" height="0"/>
					<rect x="277.979" y="107" clip-path="url(#SVGID_2_)" fill="none" width="32" height="0"/>
					<rect x="277.979" y="107" clip-path="url(#SVGID_2_)" fill="none" width="32" height="0"/>
					<rect x="277.979" y="107" clip-path="url(#SVGID_2_)" fill="none" width="32" height="0"/>
					<rect x="278" y="107" clip-path="url(#SVGID_2_)" fill="none" width="32" height="1"/>
					<rect x="277.979" y="108" clip-path="url(#SVGID_2_)" fill="none" width="32" height="0"/>
					<rect x="277.979" y="108" clip-path="url(#SVGID_2_)" fill="none" width="32" height="0"/>
					<rect x="277.979" y="108" clip-path="url(#SVGID_2_)" fill="none" width="32" height="0"/>
					<rect x="278" y="108" clip-path="url(#SVGID_2_)" fill="none" width="32" height="1"/>
					<rect x="277.979" y="109" clip-path="url(#SVGID_2_)" fill="none" width="32" height="0"/>
					<rect x="277.979" y="109" clip-path="url(#SVGID_2_)" fill="none" width="32" height="0"/>
					<rect x="277.979" y="109" clip-path="url(#SVGID_2_)" fill="none" width="32" height="0"/>
					<rect x="277.979" y="109" clip-path="url(#SVGID_2_)" fill="none" width="32" height="0"/>
					<rect x="278" y="109" clip-path="url(#SVGID_2_)" fill="none" width="32" height="1"/>
					<rect x="277.979" y="110" clip-path="url(#SVGID_2_)" fill="none" width="32" height="0"/>
					<rect x="277.979" y="110" clip-path="url(#SVGID_2_)" fill="none" width="32" height="0"/>
					<rect x="277.979" y="110" clip-path="url(#SVGID_2_)" fill="none" width="32" height="0"/>
					<rect x="278" y="110" clip-path="url(#SVGID_2_)" fill="none" width="32" height="1"/>
					<rect x="277.979" y="111" clip-path="url(#SVGID_2_)" fill="none" width="32" height="0"/>
					<rect x="277.979" y="111" clip-path="url(#SVGID_2_)" fill="none" width="32" height="0"/>
					<rect x="277.979" y="111" clip-path="url(#SVGID_2_)" fill="none" width="32" height="0"/>
					<rect x="277.979" y="111" clip-path="url(#SVGID_2_)" fill="none" width="32" height="0"/>
					<rect x="278" y="111" clip-path="url(#SVGID_2_)" fill="none" width="32" height="1"/>
					<rect x="277.979" y="112" clip-path="url(#SVGID_2_)" fill="none" width="32" height="0"/>
					<rect x="277.979" y="112" clip-path="url(#SVGID_2_)" fill="none" width="32" height="0"/>
					<rect x="277.979" y="112" clip-path="url(#SVGID_2_)" fill="none" width="32" height="0"/>
					<rect x="277.979" y="112" clip-path="url(#SVGID_2_)" fill="none" width="32" height="0"/>
					<rect x="278" y="112" clip-path="url(#SVGID_2_)" fill="none" width="32" height="1"/>
					<rect x="277.979" y="113" clip-path="url(#SVGID_2_)" fill="none" width="32" height="0"/>
					<rect x="277.979" y="113" clip-path="url(#SVGID_2_)" fill="none" width="32" height="0"/>
					<rect x="277.979" y="113" clip-path="url(#SVGID_2_)" fill="none" width="32" height="0"/>
					<rect x="278" y="113" clip-path="url(#SVGID_2_)" fill="none" width="32" height="1"/>
					<rect x="277.979" y="114" clip-path="url(#SVGID_2_)" fill="none" width="32" height="0"/>
					<rect x="277.979" y="114" clip-path="url(#SVGID_2_)" fill="none" width="32" height="0"/>
					<rect x="277.979" y="114" clip-path="url(#SVGID_2_)" fill="none" width="32" height="0"/>
					<rect x="277.979" y="114" clip-path="url(#SVGID_2_)" fill="none" width="32" height="0"/>
					<rect x="278" y="114" clip-path="url(#SVGID_2_)" fill="none" width="32" height="1"/>
					<rect x="277.979" y="115" clip-path="url(#SVGID_2_)" fill="none" width="32" height="0"/>
					<rect x="277.979" y="115" clip-path="url(#SVGID_2_)" fill="none" width="32" height="0"/>
					<rect x="277.979" y="115" clip-path="url(#SVGID_2_)" fill="none" width="32" height="0"/>
					<rect x="277.979" y="115" clip-path="url(#SVGID_2_)" fill="none" width="32" height="0"/>
					<rect x="278" y="115" clip-path="url(#SVGID_2_)" fill="none" width="32" height="1"/>
					<rect x="277.979" y="116" clip-path="url(#SVGID_2_)" fill="none" width="32" height="0"/>
					<rect x="277.979" y="116" clip-path="url(#SVGID_2_)" fill="none" width="32" height="0"/>
					<rect x="277.979" y="116" clip-path="url(#SVGID_2_)" fill="none" width="32" height="0"/>
					<rect x="278" y="116" clip-path="url(#SVGID_2_)" fill="none" width="32" height="1"/>
					<rect x="277.979" y="117" clip-path="url(#SVGID_2_)" fill="none" width="32" height="0"/>
					<rect x="277.979" y="117" clip-path="url(#SVGID_2_)" fill="none" width="32" height="0"/>
				</g>
			</g>
			<g>
				<circle cx="293.776" cy="103.654" r="6.704"/>
			</g>
		</g>
		<g>
			<ellipse fill="#FFFFFF" cx="192.98" cy="97.258" rx="23.667" ry="27.388"/>
			<g>
				<g>
					<defs>
						
							<ellipse id="SVGID_3_" transform="matrix(0.9993 -0.0374 0.0374 0.9993 -3.601 7.3013)" cx="193.403" cy="99.924" rx="15.801" ry="17.813"/>
					</defs>
					<clipPath id="SVGID_4_">
						<use xlink:href="#SVGID_3_"  overflow="visible"/>
					</clipPath>
					<polygon clip-path="url(#SVGID_4_)" fill="none" points="210,88.546 177,89.757 177,82 210,82 					"/>
					<polygon clip-path="url(#SVGID_4_)" fill="none" points="210,88.765 177,89.972 177,89.757 210,88.546 					"/>
					<polygon clip-path="url(#SVGID_4_)" fill="none" points="210,88.979 177,90.19 177,89.972 210,88.765 					"/>
					<polygon clip-path="url(#SVGID_4_)" fill="none" points="210,89.198 177,90.405 177,90.19 210,88.979 					"/>
					<polygon clip-path="url(#SVGID_4_)" fill="none" points="210,89.413 177,90.624 177,90.405 210,89.198 					"/>
					<polygon clip-path="url(#SVGID_4_)" fill="none" points="210,89.628 177,90.839 177,90.624 210,89.413 					"/>
					<polygon clip-path="url(#SVGID_4_)" fill="none" points="210,89.847 177,91.058 177,90.839 210,89.628 					"/>
					<polygon clip-path="url(#SVGID_4_)" fill="none" points="210,90.065 177,91.272 177,91.058 210,89.847 					"/>
					<polygon clip-path="url(#SVGID_4_)" fill="none" points="210,90.28 177,91.491 177,91.272 210,90.065 					"/>
					<polygon clip-path="url(#SVGID_4_)" fill="none" points="210,90.495 177,91.706 177,91.491 210,90.28 					"/>
					<polygon clip-path="url(#SVGID_4_)" fill="none" points="210,90.714 177,91.925 177,91.706 210,90.495 					"/>
					<polygon clip-path="url(#SVGID_4_)" fill="none" points="210,90.929 177,92.14 177,91.925 210,90.714 					"/>
					<polygon clip-path="url(#SVGID_4_)" fill="none" points="210,91.147 177,92.354 177,92.14 210,90.929 					"/>
					<polygon clip-path="url(#SVGID_4_)" fill="none" points="210,91.362 177,92.573 177,92.354 210,91.147 					"/>
					<polygon clip-path="url(#SVGID_4_)" fill="none" points="210,91.581 177,92.788 177,92.573 210,91.362 					"/>
					<polygon clip-path="url(#SVGID_4_)" fill="none" points="210,91.796 177,93.007 177,92.788 210,91.581 					"/>
					<polygon clip-path="url(#SVGID_4_)" fill="none" points="210,92.015 177,93.222 177,93.007 210,91.796 					"/>
					<polygon clip-path="url(#SVGID_4_)" fill="none" points="210,92.229 177,93.44 177,93.222 210,92.015 					"/>
					<polygon clip-path="url(#SVGID_4_)" fill="none" points="210,92.448 177,93.655 177,93.44 210,92.229 					"/>
					<polygon clip-path="url(#SVGID_4_)" fill="none" points="210,92.663 177,93.874 177,93.655 210,92.448 					"/>
					<polygon clip-path="url(#SVGID_4_)" fill="none" points="210,92.878 177,94.089 177,93.874 210,92.663 					"/>
					<polygon clip-path="url(#SVGID_4_)" fill="none" points="210,93.097 177,94.308 177,94.089 210,92.878 					"/>
					<polygon clip-path="url(#SVGID_4_)" fill="none" points="210,93.315 177,94.522 177,94.308 210,93.097 					"/>
					<polygon clip-path="url(#SVGID_4_)" fill="none" points="210,93.53 177,94.737 177,94.522 210,93.315 					"/>
					<polygon clip-path="url(#SVGID_4_)" fill="none" points="210,93.745 177,94.956 177,94.737 210,93.53 					"/>
					<polygon clip-path="url(#SVGID_4_)" fill="none" points="210,93.964 177,95.175 177,94.956 210,93.745 					"/>
					<polygon clip-path="url(#SVGID_4_)" fill="none" points="210,94.179 177,95.39 177,95.175 210,93.964 					"/>
					<polygon clip-path="url(#SVGID_4_)" fill="none" points="210,94.397 177,95.604 177,95.39 210,94.179 					"/>
					<polygon clip-path="url(#SVGID_4_)" fill="none" points="210,94.612 177,95.823 177,95.604 210,94.397 					"/>
					<polygon clip-path="url(#SVGID_4_)" fill="none" points="210,94.831 177,96.038 177,95.823 210,94.612 					"/>
					<polygon clip-path="url(#SVGID_4_)" fill="none" points="210,95.046 177,96.257 177,96.038 210,94.831 					"/>
					<polygon clip-path="url(#SVGID_4_)" fill="none" points="210,95.261 177,96.472 177,96.257 210,95.046 					"/>
					<polygon clip-path="url(#SVGID_4_)" fill="none" points="210,95.479 177,96.69 177,96.472 210,95.261 					"/>
					<polygon clip-path="url(#SVGID_4_)" fill="none" points="210,95.698 177,96.905 177,96.69 210,95.479 					"/>
					<polygon clip-path="url(#SVGID_4_)" fill="none" points="210,95.913 177,97.12 177,96.905 210,95.698 					"/>
					<polygon clip-path="url(#SVGID_4_)" fill="none" points="210,96.128 177,97.339 177,97.12 210,95.913 					"/>
					<polygon clip-path="url(#SVGID_4_)" fill="none" points="210,96.347 177,97.558 177,97.339 210,96.128 					"/>
					<polygon clip-path="url(#SVGID_4_)" fill="none" points="210,96.562 177,97.772 177,97.558 210,96.347 					"/>
					<polygon clip-path="url(#SVGID_4_)" fill="none" points="210,96.78 177,97.987 177,97.772 210,96.562 					"/>
					<polygon clip-path="url(#SVGID_4_)" fill="none" points="210,96.995 177,98.206 177,97.987 210,96.78 					"/>
					<polygon clip-path="url(#SVGID_4_)" fill="none" points="210,97.214 177,98.421 177,98.206 210,96.995 					"/>
					<polygon clip-path="url(#SVGID_4_)" fill="none" points="210,97.429 177,98.64 177,98.421 210,97.214 					"/>
					<polygon clip-path="url(#SVGID_4_)" fill="none" points="210,97.647 177,98.854 177,98.64 210,97.429 					"/>
					<polygon clip-path="url(#SVGID_4_)" fill="none" points="210,97.862 177,99.073 177,98.854 210,97.647 					"/>
					<polygon clip-path="url(#SVGID_4_)" fill="none" points="210,98.081 177,99.288 177,99.073 210,97.862 					"/>
					<polygon clip-path="url(#SVGID_4_)" fill="none" points="210,98.296 177,99.507 177,99.288 210,98.081 					"/>
					<polygon clip-path="url(#SVGID_4_)" fill="none" points="210,98.511 177,99.722 177,99.507 210,98.296 					"/>
					<polygon clip-path="url(#SVGID_4_)" fill="none" points="210,98.729 177,99.94 177,99.722 210,98.511 					"/>
					<polygon clip-path="url(#SVGID_4_)" fill="none" points="210,98.944 177,100.155 177,99.94 210,98.729 					"/>
					<polygon clip-path="url(#SVGID_4_)" fill="none" points="210,99.163 177,100.37 177,100.155 210,98.944 					"/>
					<polygon clip-path="url(#SVGID_4_)" fill="none" points="210,99.378 177,100.589 177,100.37 210,99.163 					"/>
					<polygon clip-path="url(#SVGID_4_)" fill="none" points="210,99.597 177,100.808 177,100.589 210,99.378 					"/>
					<polygon clip-path="url(#SVGID_4_)" fill="none" points="210,99.812 177,101.022 177,100.808 210,99.597 					"/>
					<polygon clip-path="url(#SVGID_4_)" fill="none" points="210,100.03 177,101.237 177,101.022 210,99.812 					"/>
					<polygon clip-path="url(#SVGID_4_)" fill="none" points="210,100.245 177,101.456 177,101.237 210,100.03 					"/>
					<polygon clip-path="url(#SVGID_4_)" fill="none" points="210,100.464 177,101.671 177,101.456 210,100.245 					"/>
					<polygon clip-path="url(#SVGID_4_)" fill="none" points="210,100.679 177,101.89 177,101.671 210,100.464 					"/>
					<polygon clip-path="url(#SVGID_4_)" fill="none" points="210,100.897 177,102.104 177,101.89 210,100.679 					"/>
					<polygon clip-path="url(#SVGID_4_)" fill="none" points="210,101.112 177,102.323 177,102.104 210,100.897 					"/>
					<polygon clip-path="url(#SVGID_4_)" fill="none" points="210,101.331 177,102.538 177,102.323 210,101.112 					"/>
					<polygon clip-path="url(#SVGID_4_)" fill="none" points="210,101.546 177,102.753 177,102.538 210,101.331 					"/>
					<polygon clip-path="url(#SVGID_4_)" fill="none" points="210,101.761 177,102.972 177,102.753 210,101.546 					"/>
					<polygon clip-path="url(#SVGID_4_)" fill="none" points="210,101.979 177,103.19 177,102.972 210,101.761 					"/>
					<polygon clip-path="url(#SVGID_4_)" fill="none" points="210,102.194 177,103.405 177,103.19 210,101.979 					"/>
					<polygon clip-path="url(#SVGID_4_)" fill="none" points="210,102.413 177,103.62 177,103.405 210,102.194 					"/>
					<polygon clip-path="url(#SVGID_4_)" fill="none" points="210,102.628 177,103.839 177,103.62 210,102.413 					"/>
					<polygon clip-path="url(#SVGID_4_)" fill="none" points="210,102.847 177,104.054 177,103.839 210,102.628 					"/>
					<polygon clip-path="url(#SVGID_4_)" fill="none" points="210,103.062 177,104.272 177,104.054 210,102.847 					"/>
					<polygon clip-path="url(#SVGID_4_)" fill="none" points="210,103.28 177,104.487 177,104.272 210,103.062 					"/>
					<polygon clip-path="url(#SVGID_4_)" fill="none" points="210,103.495 177,104.706 177,104.487 210,103.28 					"/>
					<polygon clip-path="url(#SVGID_4_)" fill="none" points="210,103.714 177,104.921 177,104.706 210,103.495 					"/>
					<polygon clip-path="url(#SVGID_4_)" fill="none" points="210,103.929 177,105.14 177,104.921 210,103.714 					"/>
					<polygon clip-path="url(#SVGID_4_)" fill="none" points="210,104.144 177,105.354 177,105.14 210,103.929 					"/>
					<polygon clip-path="url(#SVGID_4_)" fill="none" points="210,104.362 177,105.573 177,105.354 210,104.144 					"/>
					<polygon clip-path="url(#SVGID_4_)" fill="none" points="210,104.577 177,105.788 177,105.573 210,104.362 					"/>
					<polygon clip-path="url(#SVGID_4_)" fill="none" points="210,104.796 177,106.003 177,105.788 210,104.577 					"/>
					<polygon clip-path="url(#SVGID_4_)" fill="none" points="210,105.011 177,106.222 177,106.003 210,104.796 					"/>
					<polygon clip-path="url(#SVGID_4_)" fill="none" points="210,105.229 177,106.44 177,106.222 210,105.011 					"/>
					<polygon clip-path="url(#SVGID_4_)" fill="none" points="210,105.444 177,106.655 177,106.44 210,105.229 					"/>
					<polygon clip-path="url(#SVGID_4_)" fill="none" points="210,105.663 177,106.87 177,106.655 210,105.444 					"/>
					<polygon clip-path="url(#SVGID_4_)" fill="none" points="210,105.878 177,107.089 177,106.87 210,105.663 					"/>
					<polygon clip-path="url(#SVGID_4_)" fill="none" points="210,106.097 177,107.304 177,107.089 210,105.878 					"/>
					<polygon clip-path="url(#SVGID_4_)" fill="none" points="210,106.312 177,107.522 177,107.304 210,106.097 					"/>
					<polygon clip-path="url(#SVGID_4_)" fill="none" points="210,106.53 177,107.737 177,107.522 210,106.312 					"/>
					<polygon clip-path="url(#SVGID_4_)" fill="none" points="210,106.745 177,107.956 177,107.737 210,106.53 					"/>
					<polygon clip-path="url(#SVGID_4_)" fill="none" points="210,106.964 177,108.171 177,107.956 210,106.745 					"/>
					<polygon clip-path="url(#SVGID_4_)" fill="none" points="210,107.179 177,108.386 177,108.171 210,106.964 					"/>
					<polygon clip-path="url(#SVGID_4_)" fill="none" points="210,107.394 177,108.604 177,108.386 210,107.179 					"/>
					<polygon clip-path="url(#SVGID_4_)" fill="none" points="210,107.612 177,108.823 177,108.604 210,107.394 					"/>
					<polygon clip-path="url(#SVGID_4_)" fill="none" points="210,107.827 177,109.038 177,108.823 210,107.612 					"/>
					<polygon clip-path="url(#SVGID_4_)" fill="none" points="210,108.046 177,109.253 177,109.038 210,107.827 					"/>
					<polygon clip-path="url(#SVGID_4_)" fill="none" points="210,108.261 177,109.472 177,109.253 210,108.046 					"/>
					<polygon clip-path="url(#SVGID_4_)" fill="none" points="210,108.479 177,109.687 177,109.472 210,108.261 					"/>
					<polygon clip-path="url(#SVGID_4_)" fill="none" points="210,108.694 177,109.905 177,109.687 210,108.479 					"/>
					<polygon clip-path="url(#SVGID_4_)" fill="none" points="210,108.913 177,110.12 177,109.905 210,108.694 					"/>
					<polygon clip-path="url(#SVGID_4_)" fill="none" points="210,109.128 177,110.339 177,110.12 210,108.913 					"/>
					<polygon clip-path="url(#SVGID_4_)" fill="none" points="210,109.347 177,110.554 177,110.339 210,109.128 					"/>
					<polygon clip-path="url(#SVGID_4_)" fill="none" points="210,109.562 177,110.772 177,110.554 210,109.347 					"/>
					<polygon clip-path="url(#SVGID_4_)" fill="none" points="210,109.776 177,110.987 177,110.772 210,109.562 					"/>
					<polygon clip-path="url(#SVGID_4_)" fill="none" points="210,109.995 177,111.206 177,110.987 210,109.776 					"/>
					<polygon clip-path="url(#SVGID_4_)" fill="none" points="210,110.21 177,111.421 177,111.206 210,109.995 					"/>
					<polygon clip-path="url(#SVGID_4_)" fill="none" points="210,110.429 177,111.636 177,111.421 210,110.21 					"/>
					<polygon clip-path="url(#SVGID_4_)" fill="none" points="210,110.644 177,111.854 177,111.636 210,110.429 					"/>
					<polygon clip-path="url(#SVGID_4_)" fill="none" points="210,110.862 177,112.069 177,111.854 210,110.644 					"/>
					<polygon clip-path="url(#SVGID_4_)" fill="none" points="210,111.077 177,112.288 177,112.069 210,110.862 					"/>
					<polygon clip-path="url(#SVGID_4_)" fill="none" points="210,111.296 177,112.503 177,112.288 210,111.077 					"/>
					<polygon clip-path="url(#SVGID_4_)" fill="none" points="210,111.511 177,112.722 177,112.503 210,111.296 					"/>
					<polygon clip-path="url(#SVGID_4_)" fill="none" points="210,111.729 177,112.937 177,112.722 210,111.511 					"/>
					<polygon clip-path="url(#SVGID_4_)" fill="none" points="210,111.944 177,113.155 177,112.937 210,111.729 					"/>
					<polygon clip-path="url(#SVGID_4_)" fill="none" points="210,112.163 177,113.37 177,113.155 210,111.944 					"/>
					<polygon clip-path="url(#SVGID_4_)" fill="none" points="210,112.378 177,113.589 177,113.37 210,112.163 					"/>
					<polygon clip-path="url(#SVGID_4_)" fill="none" points="210,112.597 177,113.804 177,113.589 210,112.378 					"/>
					<polygon clip-path="url(#SVGID_4_)" fill="none" points="210,112.812 177,114.022 177,113.804 210,112.597 					"/>
					<polygon clip-path="url(#SVGID_4_)" fill="none" points="210,113.026 177,114.237 177,114.022 210,112.812 					"/>
					<polygon clip-path="url(#SVGID_4_)" fill="none" points="210,113.245 177,114.456 177,114.237 210,113.026 					"/>
					<polygon clip-path="url(#SVGID_4_)" fill="none" points="210,113.46 177,114.671 177,114.456 210,113.245 					"/>
					<polygon clip-path="url(#SVGID_4_)" fill="none" points="210,113.679 177,114.886 177,114.671 210,113.46 					"/>
					<polygon clip-path="url(#SVGID_4_)" fill="none" points="210,113.894 177,115.104 177,114.886 210,113.679 					"/>
					<polygon clip-path="url(#SVGID_4_)" fill="none" points="210,114.112 177,115.319 177,115.104 210,113.894 					"/>
					<polygon clip-path="url(#SVGID_4_)" fill="none" points="210,114.327 177,115.538 177,115.319 210,114.112 					"/>
					<polygon clip-path="url(#SVGID_4_)" fill="none" points="210,114.546 177,115.753 177,115.538 210,114.327 					"/>
					<polygon clip-path="url(#SVGID_4_)" fill="none" points="210,114.761 177,115.972 177,115.753 210,114.546 					"/>
					<polygon clip-path="url(#SVGID_4_)" fill="none" points="210,114.979 177,116.187 177,115.972 210,114.761 					"/>
					<polygon clip-path="url(#SVGID_4_)" fill="none" points="210,115.194 177,116.405 177,116.187 210,114.979 					"/>
					<polygon clip-path="url(#SVGID_4_)" fill="none" points="210,115.409 177,116.62 177,116.405 210,115.194 					"/>
					<polygon clip-path="url(#SVGID_4_)" fill="none" points="210,115.628 177,116.839 177,116.62 210,115.409 					"/>
					<polygon clip-path="url(#SVGID_4_)" fill="none" points="210,115.843 177,117.054 177,116.839 210,115.628 					"/>
					<polygon clip-path="url(#SVGID_4_)" fill="none" points="210,116.062 177,117.269 177,117.054 210,115.843 					"/>
					<polygon clip-path="url(#SVGID_4_)" fill="none" points="210,116.276 177,117.487 177,117.269 210,116.062 					"/>
					<polygon clip-path="url(#SVGID_4_)" fill="none" points="210,116.495 177,117.702 177,117.487 210,116.276 					"/>
					<polygon clip-path="url(#SVGID_4_)" fill="none" points="210,116.71 177,117.921 177,117.702 210,116.495 					"/>
					<polygon clip-path="url(#SVGID_4_)" fill="none" points="210,116.929 179.546,118 177,118 177,117.921 210,116.71 					"/>
					<polygon clip-path="url(#SVGID_4_)" fill="none" points="210,117.144 185.335,118 179.546,118 210,116.929 					"/>
					<polygon clip-path="url(#SVGID_4_)" fill="none" points="185.335,118 210,117.144 210,118 					"/>
				</g>
			</g>
			<g>
				<circle cx="193.862" cy="104.507" r="6.511"/>
			</g>
		</g>
		<path fill="#69D0F3" d="M141.273,57.998L140.357,58h-0.744C133.736,58,129,62.199,129,68.369v36.561
			c0,1.469-0.172,3.124-0.975,4.921c-3.642,5.813-7.482,6.703-10.594,6.746c-2.103-0.152-3.122-0.368-3.518-0.473
			c-6.243-2.369-8.913-6.257-8.913-12.959V67.612c0-3.519-2.053-8.019-8.011-9.512L96.093,58h-0.987
			c-5.521,0-9.665,3.941-10.103,9.785L85,67.944v35.977c0,7.348,2.159,14.034,6.455,19.872l0.13,0.19l0.147,0.182
			c6.946,8.357,15.505,12.594,25.441,12.594c7.683,0,14.797-2.587,21.147-7.689l0.303-0.243l0.461-0.271
			c7.12-6.958,10.915-14.78,10.915-23.248V67.738C150,62.788,146.383,58.957,141.273,57.998z"/>
		<path fill="#69D0F3" d="M78.771,66.384c-1.305-5.366-6.708-8.656-12.079-7.355l-8.054,1.958l-2.563-12.699
			c-1.093-5.414-6.369-8.917-11.781-7.824c-5.414,1.093-8.917,6.367-7.824,11.781l2.719,13.47l-6.548,1.591
			c-5.367,1.305-8.66,6.712-7.355,12.079c1.112,4.573,5.203,7.641,9.709,7.641c0.782,0,1.576-0.093,2.37-0.285l5.785-1.406
			l9.978,49.435c0.958,4.746,5.129,8.023,9.792,8.023c0.656,0,1.322-0.065,1.989-0.2c5.414-1.093,8.917-6.367,7.824-11.781
			L62.598,80.606l8.817-2.143C76.782,77.159,80.075,71.751,78.771,66.384z"/>
		<path fill="#333333" d="M228.539,94.845c-0.84-22.447-17.582-39.938-37.742-39.191c-4.002,0.15-7.823,1.035-11.375,2.518
			l2.287-22.144c0.567-5.494-3.426-10.407-8.92-10.975c-5.494-0.567-10.407,3.426-10.975,8.92l-9.181,88.906
			c-0.567,5.494,3.426,10.407,8.92,10.975c0.35,0.036,0.696,0.054,1.04,0.054c3.586,0,6.804-1.928,8.568-4.879
			c6.023,4.878,13.43,7.741,21.438,7.741c0.409,0,0.822-0.008,1.233-0.023c9.967-0.373,19.083-5.135,25.666-13.41
			C225.723,115.511,228.934,105.393,228.539,94.845z M203.846,110.885c-2.894,3.638-6.716,5.724-10.763,5.875
			c-8.915,0.364-16.588-8.742-17.008-19.952c-0.424-11.337,6.515-20.833,15.469-21.168c0.162-0.006,0.323-0.009,0.484-0.009
			c8.7,0,16.112,8.955,16.523,19.962C208.769,101.367,207.098,106.798,203.846,110.885z"/>
		<path fill="#333333" d="M325.55,28.297c-5.488-0.297-10.22,3.95-10.507,9.465l-1.159,22.216c-3.28-2.009-6.918-3.471-10.85-4.237
			c-2.065-0.402-4.177-0.615-6.276-0.615c-17.694,0-33.283,14.071-37.066,33.482c-4.277,21.959,8.203,42.965,27.821,46.789
			c2.063,0.402,4.175,0.603,6.274,0.603c0.001,0,0.002,0,0.003,0c6.145,0,12.034-1.759,17.265-4.781
			c1.382,3.556,4.74,6.129,8.798,6.34c0.177,0.01,0.354-0.002,0.529-0.002c5.283,0,9.699-4.149,9.978-9.487l4.656-89.262
			C335.304,33.293,331.065,28.585,325.55,28.297z M293.789,116.008c-0.819,0-1.645-0.08-2.451-0.237
			c-8.795-1.714-14.185-12.168-12.016-23.302c1.925-9.876,9.421-17.325,17.436-17.325c0.818,0,1.643,0.08,2.45,0.237
			c8.795,1.714,14.186,12.167,12.016,23.303C309.299,108.561,301.804,116.008,293.789,116.008z"/>
		<g>
			<path fill="#333333" d="M243.475,120.87c0.087,0,0.174-0.001,0.261-0.003c5.521-0.142,9.883-4.732,9.741-10.253l-1.5-58.5
				c-0.142-5.521-4.763-9.899-10.253-9.74c-5.521,0.142-9.883,4.732-9.741,10.253l1.5,58.5
				C233.622,116.56,238.07,120.87,243.475,120.87z"/>
			<path fill="#333333" d="M245.479,124.646c-7.093,0-12.862,5.77-12.862,12.862s5.77,12.862,12.862,12.862
				s12.862-5.77,12.862-12.862S252.572,124.646,245.479,124.646z"/>
		</g>
		<path fill="#333333" d="M398.947,67.206c-4.791-2.744-10.903-1.082-13.646,3.711l-18.438,32.208l-8.681-34.823
			c-1.337-5.359-6.769-8.619-12.122-7.284c-5.358,1.336-8.62,6.763-7.284,12.122l13,52.149c0.221,0.887,0.558,1.714,0.983,2.475
			l-12.959,22.639c-2.744,4.793-1.082,10.903,3.711,13.646c1.566,0.897,3.273,1.323,4.958,1.323c3.47,0,6.842-1.808,8.688-5.034
			l45.5-79.486C405.402,76.059,403.74,69.949,398.947,67.206z"/>
	</g>
</g>
</svg>
